<svg width="96" height="96" viewBox="0 0 96 96" fill="none" xmlns="http://www.w3.org/2000/svg">
<g clip-path="url(#paint0_diamond_226_288_clip_path)" data-figma-skip-parse="true"><g transform="matrix(-0.0302054 0.0577297 -0.0408919 -0.097683 80.5 53)"><rect x="0" y="0" width="274.811" height="177.191" fill="url(#paint0_diamond_226_288)" opacity="1" shape-rendering="crispEdges"/><rect x="0" y="0" width="274.811" height="177.191" transform="scale(1 -1)" fill="url(#paint0_diamond_226_288)" opacity="1" shape-rendering="crispEdges"/><rect x="0" y="0" width="274.811" height="177.191" transform="scale(-1 1)" fill="url(#paint0_diamond_226_288)" opacity="1" shape-rendering="crispEdges"/><rect x="0" y="0" width="274.811" height="177.191" transform="scale(-1)" fill="url(#paint0_diamond_226_288)" opacity="1" shape-rendering="crispEdges"/></g></g><path opacity="0.4" d="M86.4223 41.4919C84.8078 40.8913 82.8234 40.8382 81.1319 41.3464L75.4216 43.049C73.3101 43.6773 72 44.9479 72 46.3617V59.6358C72 61.0496 73.3101 62.3179 75.4216 62.9509L81.1281 64.6512C81.9025 64.8868 82.731 65 83.5594 65C84.5535 65 85.5399 64.8337 86.4223 64.5079C88.0367 63.9096 89 62.8724 89 61.7358V44.2664C89 43.1298 88.0367 42.0926 86.4223 41.4919Z" data-figma-gradient-fill="{&#34;type&#34;:&#34;GRADIENT_DIAMOND&#34;,&#34;stops&#34;:[{&#34;color&#34;:{&#34;r&#34;:0.71666663885116577,&#34;g&#34;:0.12650257349014282,&#34;b&#34;:0.12650257349014282,&#34;a&#34;:1.0},&#34;position&#34;:0.0},{&#34;color&#34;:{&#34;r&#34;:0.038333356380462646,&#34;g&#34;:0.13493333756923676,&#34;b&#34;:0.38333332538604736,&#34;a&#34;:0.0},&#34;position&#34;:1.0}],&#34;stopsVar&#34;:[],&#34;transform&#34;:{&#34;m00&#34;:-60.410713195800781,&#34;m01&#34;:-81.783775329589844,&#34;m02&#34;:151.59724426269531,&#34;m10&#34;:115.45945739746094,&#34;m11&#34;:-195.36595153808594,&#34;m12&#34;:92.95324707031250},&#34;opacity&#34;:1.0,&#34;blendMode&#34;:&#34;NORMAL&#34;,&#34;visible&#34;:true}"/>
<g clip-path="url(#paint1_diamond_226_288_clip_path)" data-figma-skip-parse="true"><g transform="matrix(-0.086301 0.089 -0.116834 -0.150595 45.2857 52.5)"><rect x="0" y="0" width="260.151" height="168.128" fill="url(#paint1_diamond_226_288)" opacity="1" shape-rendering="crispEdges"/><rect x="0" y="0" width="260.151" height="168.128" transform="scale(1 -1)" fill="url(#paint1_diamond_226_288)" opacity="1" shape-rendering="crispEdges"/><rect x="0" y="0" width="260.151" height="168.128" transform="scale(-1 1)" fill="url(#paint1_diamond_226_288)" opacity="1" shape-rendering="crispEdges"/><rect x="0" y="0" width="260.151" height="168.128" transform="scale(-1)" fill="url(#paint1_diamond_226_288)" opacity="1" shape-rendering="crispEdges"/></g></g><path d="M55.3202 71H35.2513C26.8592 71 21 66.8805 21 60.9831V44.0169C21 38.117 26.8592 34 35.2513 34H55.3202C63.7122 34 69.5714 38.117 69.5714 44.0169V60.9831C69.5714 66.8805 63.7122 71 55.3202 71Z" data-figma-gradient-fill="{&#34;type&#34;:&#34;GRADIENT_DIAMOND&#34;,&#34;stops&#34;:[{&#34;color&#34;:{&#34;r&#34;:0.71666663885116577,&#34;g&#34;:0.12650257349014282,&#34;b&#34;:0.12650257349014282,&#34;a&#34;:1.0},&#34;position&#34;:0.0},{&#34;color&#34;:{&#34;r&#34;:0.038333356380462646,&#34;g&#34;:0.13493333756923676,&#34;b&#34;:0.38333332538604736,&#34;a&#34;:0.0},&#34;position&#34;:1.0}],&#34;stopsVar&#34;:[],&#34;transform&#34;:{&#34;m00&#34;:-172.602050781250,&#34;m01&#34;:-233.66793823242188,&#34;m02&#34;:248.42070007324219,&#34;m10&#34;:178.0,&#34;m11&#34;:-301.18917846679688,&#34;m12&#34;:114.09458923339844},&#34;opacity&#34;:1.0,&#34;blendMode&#34;:&#34;NORMAL&#34;,&#34;visible&#34;:true}"/>
<path d="M52.9912 41C56.303 41 58.9986 43.149 58.9986 45.7893L59 48.9129C59 49.1417 58.8855 49.3637 58.6825 49.5255C58.478 49.6885 58.2025 49.7799 57.9125 49.7799C56.7221 49.7799 55.7535 50.5521 55.7535 51.5012C55.7535 52.4502 56.7221 53.2224 57.9125 53.2224C58.5128 53.2224 59 53.6109 59 54.0895V57.2118C59 59.8521 56.3059 62 52.9941 62H36.0074C32.6956 62 30 59.8521 30 57.2118V54.0895C30 53.6109 30.4872 53.2224 31.0875 53.2224C32.2794 53.2224 33.248 52.4502 33.248 51.5012C33.248 50.5764 32.3186 49.8804 31.0875 49.8804C30.799 49.8804 30.5235 49.7891 30.319 49.6261C30.1146 49.4631 30 49.2423 30 49.0134L30.0029 45.7893C30.0029 43.149 32.697 41 36.0088 41H52.9912ZM44.5029 47.0124C44.0911 47.0124 43.7228 47.195 43.5387 47.4887L42.4816 49.1961L40.1239 49.4701C39.7164 49.5163 39.3829 49.7382 39.2539 50.0504C39.1263 50.3625 39.2292 50.7 39.5251 50.9289L41.2346 52.256L40.8315 54.1322C40.7619 54.4559 40.9257 54.7773 41.2593 54.9703C41.4478 55.0778 41.6667 55.1333 41.8886 55.1333C42.0582 55.1333 42.2293 55.0998 42.3859 55.0339L44.5 54.1484L46.6098 55.0316C46.9752 55.1877 47.4087 55.1634 47.7407 54.9692C48.0757 54.7773 48.2396 54.4559 48.17 54.1322L47.7654 52.256L49.475 50.9289C49.7722 50.7 49.8752 50.3625 49.7461 50.0504C49.6185 49.7382 49.285 49.5163 48.8819 49.4712L46.5198 49.1961L45.4628 47.4898C45.2815 47.1962 44.9132 47.0135 44.5029 47.0124Z" fill="#FFFCFC" fill-opacity="0.72"/>
<defs>
<clipPath id="paint0_diamond_226_288_clip_path"><path opacity="0.4" d="M86.4223 41.4919C84.8078 40.8913 82.8234 40.8382 81.1319 41.3464L75.4216 43.049C73.3101 43.6773 72 44.9479 72 46.3617V59.6358C72 61.0496 73.3101 62.3179 75.4216 62.9509L81.1281 64.6512C81.9025 64.8868 82.731 65 83.5594 65C84.5535 65 85.5399 64.8337 86.4223 64.5079C88.0367 63.9096 89 62.8724 89 61.7358V44.2664C89 43.1298 88.0367 42.0926 86.4223 41.4919Z"/></clipPath><clipPath id="paint1_diamond_226_288_clip_path"><path d="M55.3202 71H35.2513C26.8592 71 21 66.8805 21 60.9831V44.0169C21 38.117 26.8592 34 35.2513 34H55.3202C63.7122 34 69.5714 38.117 69.5714 44.0169V60.9831C69.5714 66.8805 63.7122 71 55.3202 71Z"/></clipPath><linearGradient id="paint0_diamond_226_288" x1="0" y1="0" x2="500" y2="500" gradientUnits="userSpaceOnUse">
<stop stop-color="#B72020"/>
<stop offset="1" stop-color="#0A2262" stop-opacity="0"/>
</linearGradient>
<linearGradient id="paint1_diamond_226_288" x1="0" y1="0" x2="500" y2="500" gradientUnits="userSpaceOnUse">
<stop stop-color="#B72020"/>
<stop offset="1" stop-color="#0A2262" stop-opacity="0"/>
</linearGradient>
</defs>
</svg>
