<svg width="44" height="40" viewBox="0 0 44 40" fill="none" xmlns="http://www.w3.org/2000/svg">
<rect x="1.5" y="1.5" width="41" height="37" rx="18.5" stroke="url(#paint0_linear_102_179)" stroke-width="3" style="mix-blend-mode:overlay"/>
<path d="M34 20.0002C34 20.5644 33.5836 21.0304 33.0459 21.0987L32.9091 21.1074H11.0909C10.6487 21.1074 10.2516 20.8372 10.0829 20.4224C10.0276 20.2866 10 20.1434 10 20.0002C10 19.7603 10.0768 19.5225 10.2244 19.3277L10.3215 19.2164L19.1215 10.3224C19.5476 9.89132 20.2385 9.89279 20.6633 10.3253C21.0526 10.7231 21.0851 11.3455 20.7584 11.7785L20.6604 11.8915L13.7324 18.8931H32.9091C33.5113 18.8931 34 19.3891 34 20.0002ZM20.6605 28.1085C21.0881 28.5395 21.0881 29.2407 20.6634 29.6747C20.2741 30.0712 19.6611 30.1054 19.2322 29.7764L19.1201 29.6776L14.2678 24.7723C14.0525 24.5553 13.9463 24.2719 13.9463 23.9869C13.9463 23.705 14.0525 23.423 14.2649 23.206C14.6542 22.8082 15.266 22.7738 15.6946 23.104L15.8067 23.2031L20.6605 28.1085Z" fill="white"/>
<defs>
<linearGradient id="paint0_linear_102_179" x1="6" y1="10" x2="34.978" y2="36.8162" gradientUnits="userSpaceOnUse">
<stop stop-color="#082EB4"/>
<stop offset="1" stop-color="#640707"/>
</linearGradient>
</defs>
</svg>
